<mxfile host="app.diagrams.net" agent="Mozilla/5.0 (Windows NT 10.0; Win64; x64) AppleWebKit/537.36 (KHTML, like Gecko) Chrome/127.0.0.0 Safari/537.36" version="24.7.7">
  <diagram name="Страница — 1" id="Q2HFuk-CNmRQg0nZWxVH">
    <mxGraphModel dx="1050" dy="565" grid="1" gridSize="10" guides="1" tooltips="1" connect="1" arrows="1" fold="1" page="1" pageScale="1" pageWidth="827" pageHeight="1169" math="0" shadow="0">
      <root>
        <mxCell id="0" />
        <mxCell id="1" parent="0" />
        <mxCell id="JC1yT0ZwUZjXVEGGML9b-4" value="" style="rounded=0;whiteSpace=wrap;html=1;fillColor=none;strokeColor=#FFB570;dashed=1;strokeWidth=2;" parent="1" vertex="1">
          <mxGeometry x="390" y="270" width="260" height="90" as="geometry" />
        </mxCell>
        <mxCell id="JC1yT0ZwUZjXVEGGML9b-1" value="" style="rounded=0;whiteSpace=wrap;html=1;fillColor=none;strokeColor=#82b366;dashed=1;strokeWidth=2;" parent="1" vertex="1">
          <mxGeometry x="130" y="50" width="260" height="90" as="geometry" />
        </mxCell>
        <mxCell id="QcvggcdU4TAHraOiaOUa-4" style="edgeStyle=orthogonalEdgeStyle;rounded=0;orthogonalLoop=1;jettySize=auto;html=1;exitX=0.5;exitY=0;exitDx=0;exitDy=0;entryX=0.5;entryY=1;entryDx=0;entryDy=0;" edge="1" parent="1" source="ArrmUuo4qOU89jzBVSeP-1" target="ArrmUuo4qOU89jzBVSeP-2">
          <mxGeometry relative="1" as="geometry" />
        </mxCell>
        <mxCell id="ArrmUuo4qOU89jzBVSeP-1" value="&lt;font style=&quot;font-size: 14px;&quot; face=&quot;Helvetica&quot;&gt;Bits stream&lt;/font&gt;" style="rounded=0;whiteSpace=wrap;html=1;fillColor=#fff2cc;strokeColor=#d6b656;" parent="1" vertex="1">
          <mxGeometry x="20" y="150" width="100" height="40" as="geometry" />
        </mxCell>
        <mxCell id="ArrmUuo4qOU89jzBVSeP-2" value="&lt;font style=&quot;font-size: 14px;&quot; face=&quot;Helvetica&quot;&gt;Modulator&lt;/font&gt;" style="rounded=0;whiteSpace=wrap;html=1;fillColor=#fff2cc;strokeColor=#d6b656;" parent="1" vertex="1">
          <mxGeometry x="20" y="80" width="100" height="40" as="geometry" />
        </mxCell>
        <mxCell id="QcvggcdU4TAHraOiaOUa-2" style="edgeStyle=orthogonalEdgeStyle;rounded=0;orthogonalLoop=1;jettySize=auto;html=1;exitX=0.5;exitY=0;exitDx=0;exitDy=0;entryX=0;entryY=0.5;entryDx=0;entryDy=0;" edge="1" parent="1" source="ArrmUuo4qOU89jzBVSeP-4" target="ArrmUuo4qOU89jzBVSeP-7">
          <mxGeometry relative="1" as="geometry" />
        </mxCell>
        <mxCell id="ArrmUuo4qOU89jzBVSeP-4" value="&lt;font size=&quot;3&quot;&gt;IFFT&lt;/font&gt;" style="rounded=0;whiteSpace=wrap;html=1;direction=south;fillColor=#fff2cc;strokeColor=#d6b656;" parent="1" vertex="1">
          <mxGeometry x="150" y="80" width="100" height="40" as="geometry" />
        </mxCell>
        <mxCell id="QcvggcdU4TAHraOiaOUa-1" style="edgeStyle=orthogonalEdgeStyle;rounded=0;orthogonalLoop=1;jettySize=auto;html=1;exitX=0.5;exitY=0;exitDx=0;exitDy=0;" edge="1" parent="1" source="ArrmUuo4qOU89jzBVSeP-6" target="ArrmUuo4qOU89jzBVSeP-4">
          <mxGeometry relative="1" as="geometry" />
        </mxCell>
        <mxCell id="ArrmUuo4qOU89jzBVSeP-6" value="&lt;font style=&quot;font-size: 14px;&quot; face=&quot;Helvetica&quot;&gt;Pilot signals&lt;/font&gt;" style="rounded=0;whiteSpace=wrap;html=1;fillColor=#fff2cc;strokeColor=#d6b656;" parent="1" vertex="1">
          <mxGeometry x="150" y="150" width="100" height="40" as="geometry" />
        </mxCell>
        <mxCell id="ArrmUuo4qOU89jzBVSeP-7" value="&lt;font style=&quot;font-size: 14px;&quot; face=&quot;Helvetica&quot;&gt;Add Cyclic Prefix&lt;/font&gt;" style="rounded=0;whiteSpace=wrap;html=1;fillColor=#fff2cc;strokeColor=#d6b656;" parent="1" vertex="1">
          <mxGeometry x="280" y="80" width="100" height="40" as="geometry" />
        </mxCell>
        <mxCell id="ArrmUuo4qOU89jzBVSeP-11" value="" style="endArrow=classic;html=1;rounded=0;exitX=1;exitY=0.5;exitDx=0;exitDy=0;entryX=0.5;entryY=1;entryDx=0;entryDy=0;" parent="1" source="ArrmUuo4qOU89jzBVSeP-2" target="ArrmUuo4qOU89jzBVSeP-4" edge="1">
          <mxGeometry width="50" height="50" relative="1" as="geometry">
            <mxPoint y="110" as="sourcePoint" />
            <mxPoint x="150" y="100" as="targetPoint" />
          </mxGeometry>
        </mxCell>
        <mxCell id="ArrmUuo4qOU89jzBVSeP-37" value="" style="verticalLabelPosition=bottom;shadow=0;dashed=0;align=center;html=1;verticalAlign=top;shape=mxgraph.electrical.radio.aerial_-_antenna_1;" parent="1" vertex="1">
          <mxGeometry x="390" y="30" width="40" height="50" as="geometry" />
        </mxCell>
        <mxCell id="ArrmUuo4qOU89jzBVSeP-41" value="&lt;font style=&quot;font-size: 14px;&quot; face=&quot;Helvetica&quot;&gt;Rayleigh channel + AWGN&lt;/font&gt;" style="rounded=0;whiteSpace=wrap;html=1;fillColor=#dae8fc;strokeColor=#6c8ebf;" parent="1" vertex="1">
          <mxGeometry x="525" y="120" width="130" height="50" as="geometry" />
        </mxCell>
        <mxCell id="QcvggcdU4TAHraOiaOUa-9" style="edgeStyle=orthogonalEdgeStyle;rounded=0;orthogonalLoop=1;jettySize=auto;html=1;exitX=0.5;exitY=1;exitDx=0;exitDy=0;exitPerimeter=0;entryX=1;entryY=0.5;entryDx=0;entryDy=0;endArrow=none;endFill=0;" edge="1" parent="1" source="ArrmUuo4qOU89jzBVSeP-42" target="ArrmUuo4qOU89jzBVSeP-46">
          <mxGeometry relative="1" as="geometry" />
        </mxCell>
        <mxCell id="ArrmUuo4qOU89jzBVSeP-42" value="" style="verticalLabelPosition=bottom;shadow=0;dashed=0;align=center;html=1;verticalAlign=top;shape=mxgraph.electrical.radio.aerial_-_antenna_1;" parent="1" vertex="1">
          <mxGeometry x="690" y="250" width="40" height="50" as="geometry" />
        </mxCell>
        <mxCell id="QcvggcdU4TAHraOiaOUa-8" style="edgeStyle=orthogonalEdgeStyle;rounded=0;orthogonalLoop=1;jettySize=auto;html=1;exitX=0;exitY=0.5;exitDx=0;exitDy=0;entryX=0.5;entryY=0;entryDx=0;entryDy=0;" edge="1" parent="1" source="ArrmUuo4qOU89jzBVSeP-46" target="ArrmUuo4qOU89jzBVSeP-55">
          <mxGeometry relative="1" as="geometry" />
        </mxCell>
        <mxCell id="ArrmUuo4qOU89jzBVSeP-46" value="&lt;font style=&quot;font-size: 14px;&quot; face=&quot;Helvetica&quot;&gt;Remove Cyclic Prefix&lt;/font&gt;" style="rounded=0;whiteSpace=wrap;html=1;fillColor=#fff2cc;strokeColor=#d6b656;" parent="1" vertex="1">
          <mxGeometry x="540" y="300" width="100" height="40" as="geometry" />
        </mxCell>
        <mxCell id="QcvggcdU4TAHraOiaOUa-7" style="edgeStyle=orthogonalEdgeStyle;rounded=0;orthogonalLoop=1;jettySize=auto;html=1;exitX=1;exitY=0.5;exitDx=0;exitDy=0;entryX=0.5;entryY=0;entryDx=0;entryDy=0;" edge="1" parent="1" source="ArrmUuo4qOU89jzBVSeP-55" target="ArrmUuo4qOU89jzBVSeP-64">
          <mxGeometry relative="1" as="geometry" />
        </mxCell>
        <mxCell id="QcvggcdU4TAHraOiaOUa-10" style="edgeStyle=orthogonalEdgeStyle;rounded=0;orthogonalLoop=1;jettySize=auto;html=1;exitX=0.5;exitY=1;exitDx=0;exitDy=0;entryX=1;entryY=0.5;entryDx=0;entryDy=0;" edge="1" parent="1" source="ArrmUuo4qOU89jzBVSeP-55" target="ArrmUuo4qOU89jzBVSeP-66">
          <mxGeometry relative="1" as="geometry" />
        </mxCell>
        <mxCell id="ArrmUuo4qOU89jzBVSeP-55" value="&lt;font size=&quot;3&quot;&gt;FFT&lt;/font&gt;" style="rounded=0;whiteSpace=wrap;html=1;direction=south;fillColor=#fff2cc;strokeColor=#d6b656;" parent="1" vertex="1">
          <mxGeometry x="410" y="300" width="100" height="40" as="geometry" />
        </mxCell>
        <mxCell id="QcvggcdU4TAHraOiaOUa-11" style="edgeStyle=orthogonalEdgeStyle;rounded=0;orthogonalLoop=1;jettySize=auto;html=1;exitX=0;exitY=0.5;exitDx=0;exitDy=0;entryX=0.5;entryY=1;entryDx=0;entryDy=0;" edge="1" parent="1" source="ArrmUuo4qOU89jzBVSeP-64" target="ArrmUuo4qOU89jzBVSeP-66">
          <mxGeometry relative="1" as="geometry" />
        </mxCell>
        <mxCell id="ArrmUuo4qOU89jzBVSeP-64" value="&lt;font style=&quot;font-size: 14px;&quot; face=&quot;Helvetica&quot;&gt;Remove pilot signals&lt;/font&gt;" style="rounded=0;whiteSpace=wrap;html=1;fillColor=#fff2cc;strokeColor=#d6b656;" parent="1" vertex="1">
          <mxGeometry x="410" y="370" width="100" height="40" as="geometry" />
        </mxCell>
        <mxCell id="QcvggcdU4TAHraOiaOUa-12" style="edgeStyle=orthogonalEdgeStyle;rounded=0;orthogonalLoop=1;jettySize=auto;html=1;exitX=0;exitY=0.5;exitDx=0;exitDy=0;entryX=1;entryY=0.5;entryDx=0;entryDy=0;" edge="1" parent="1" source="ArrmUuo4qOU89jzBVSeP-66" target="ArrmUuo4qOU89jzBVSeP-68">
          <mxGeometry relative="1" as="geometry" />
        </mxCell>
        <mxCell id="ArrmUuo4qOU89jzBVSeP-66" value="&lt;font style=&quot;font-size: 14px;&quot; face=&quot;Helvetica&quot;&gt;Equalizer&lt;/font&gt;" style="rounded=0;whiteSpace=wrap;html=1;fillColor=#fff2cc;strokeColor=#d6b656;" parent="1" vertex="1">
          <mxGeometry x="280" y="300" width="100" height="40" as="geometry" />
        </mxCell>
        <mxCell id="QcvggcdU4TAHraOiaOUa-13" style="edgeStyle=orthogonalEdgeStyle;rounded=0;orthogonalLoop=1;jettySize=auto;html=1;exitX=0;exitY=0.5;exitDx=0;exitDy=0;entryX=1;entryY=0.5;entryDx=0;entryDy=0;" edge="1" parent="1" source="ArrmUuo4qOU89jzBVSeP-68" target="ArrmUuo4qOU89jzBVSeP-77">
          <mxGeometry relative="1" as="geometry" />
        </mxCell>
        <mxCell id="QcvggcdU4TAHraOiaOUa-15" style="edgeStyle=orthogonalEdgeStyle;rounded=0;orthogonalLoop=1;jettySize=auto;html=1;exitX=0.5;exitY=0;exitDx=0;exitDy=0;entryX=0.5;entryY=1;entryDx=0;entryDy=0;" edge="1" parent="1" source="ArrmUuo4qOU89jzBVSeP-68" target="FL3bZ-mZVT9EWMBVddr9-3">
          <mxGeometry relative="1" as="geometry" />
        </mxCell>
        <mxCell id="ArrmUuo4qOU89jzBVSeP-68" value="&lt;font style=&quot;font-size: 14px;&quot; face=&quot;Helvetica&quot;&gt;Demodulator&lt;/font&gt;" style="rounded=0;whiteSpace=wrap;html=1;fillColor=#fff2cc;strokeColor=#d6b656;" parent="1" vertex="1">
          <mxGeometry x="150" y="300" width="100" height="40" as="geometry" />
        </mxCell>
        <mxCell id="QcvggcdU4TAHraOiaOUa-14" style="edgeStyle=orthogonalEdgeStyle;rounded=0;orthogonalLoop=1;jettySize=auto;html=1;exitX=0.5;exitY=0;exitDx=0;exitDy=0;entryX=0.5;entryY=1;entryDx=0;entryDy=0;" edge="1" parent="1" source="ArrmUuo4qOU89jzBVSeP-77" target="FL3bZ-mZVT9EWMBVddr9-1">
          <mxGeometry relative="1" as="geometry" />
        </mxCell>
        <mxCell id="ArrmUuo4qOU89jzBVSeP-77" value="&lt;font style=&quot;font-size: 14px;&quot; face=&quot;Helvetica&quot;&gt;Decoded bits stream&lt;/font&gt;" style="rounded=0;whiteSpace=wrap;html=1;fillColor=#fff2cc;strokeColor=#d6b656;" parent="1" vertex="1">
          <mxGeometry x="20" y="300" width="100" height="40" as="geometry" />
        </mxCell>
        <mxCell id="FL3bZ-mZVT9EWMBVddr9-1" value="&lt;font style=&quot;font-size: 14px;&quot; face=&quot;Helvetica&quot;&gt;Uncoded BER&lt;/font&gt;" style="rounded=0;whiteSpace=wrap;html=1;fillColor=#d5e8d4;strokeColor=#82b366;" parent="1" vertex="1">
          <mxGeometry x="20" y="230" width="100" height="40" as="geometry" />
        </mxCell>
        <mxCell id="FL3bZ-mZVT9EWMBVddr9-3" value="&lt;font style=&quot;font-size: 14px;&quot; face=&quot;Helvetica&quot;&gt;EVM&lt;/font&gt;" style="rounded=0;whiteSpace=wrap;html=1;fillColor=#d5e8d4;strokeColor=#82b366;" parent="1" vertex="1">
          <mxGeometry x="150" y="230" width="100" height="40" as="geometry" />
        </mxCell>
        <mxCell id="JC1yT0ZwUZjXVEGGML9b-3" value="OFDM Modulation" style="text;html=1;align=center;verticalAlign=middle;whiteSpace=wrap;rounded=0;" parent="1" vertex="1">
          <mxGeometry x="140" y="50" width="120" height="30" as="geometry" />
        </mxCell>
        <mxCell id="JC1yT0ZwUZjXVEGGML9b-5" value="OFDM Demodulation" style="text;html=1;align=center;verticalAlign=middle;whiteSpace=wrap;rounded=0;" parent="1" vertex="1">
          <mxGeometry x="390" y="270" width="120" height="30" as="geometry" />
        </mxCell>
        <mxCell id="QcvggcdU4TAHraOiaOUa-3" style="edgeStyle=orthogonalEdgeStyle;rounded=0;orthogonalLoop=1;jettySize=auto;html=1;exitX=1;exitY=0.5;exitDx=0;exitDy=0;entryX=0.5;entryY=1;entryDx=0;entryDy=0;entryPerimeter=0;startArrow=none;startFill=0;endArrow=none;endFill=0;" edge="1" parent="1" source="ArrmUuo4qOU89jzBVSeP-7" target="ArrmUuo4qOU89jzBVSeP-37">
          <mxGeometry relative="1" as="geometry" />
        </mxCell>
      </root>
    </mxGraphModel>
  </diagram>
</mxfile>
